<svg xmlns="http://www.w3.org/2000/svg" viewBox="0 0 256 256" aria-label="Retro Chevy 1998 - Settings Icon (Two Gears)">
  <!-- Chrome-like bezel frame -->
  <rect x="28" y="28" width="200" height="200" stroke="#ffffff" stroke-width="6" fill="none"/>
  
  <!-- Large gear -->
  <g transform="translate(98,150)">
    <circle r="34" fill="none" stroke="#ffffff" stroke-width="10"/>
    <circle r="12" fill="none" stroke="#ffffff" stroke-width="6"/>
    <!-- Teeth -->
    <g stroke="#ffffff" stroke-width="8" stroke-linecap="square">
      <line x1="0" y1="-52" x2="0" y2="-40"/>
      <line x1="0" y1="52" x2="0" y2="40"/>
      <line x1="52" y1="0" x2="40" y2="0"/>
      <line x1="-52" y1="0" x2="-40" y2="0"/>
      <line x1="36" y1="36" x2="28" y2="28"/>
      <line x1="-36" y1="-36" x2="-28" y2="-28"/>
      <line x1="36" y1="-36" x2="28" y2="-28"/>
      <line x1="-36" y1="36" x2="-28" y2="28"/>
    </g>
  </g>

  <!-- Small gear (meshed) -->
  <g transform="translate(160,106) rotate(20)">
    <circle r="22" fill="none" stroke="#ffffff" stroke-width="8"/>
    <circle r="8" fill="none" stroke="#ffffff" stroke-width="5"/>
    <g stroke="#ffffff" stroke-width="6" stroke-linecap="square">
      <line x1="0" y1="-34" x2="0" y2="-26"/>
      <line x1="0" y1="34" x2="0" y2="26"/>
      <line x1="34" y1="0" x2="26" y2="0"/>
      <line x1="-34" y1="0" x2="-26" y2="0"/>
      <line x1="24" y1="24" x2="18" y2="18"/>
      <line x1="-24" y1="-24" x2="-18" y2="-18"/>
      <line x1="24" y1="-24" x2="18" y2="-18"/>
      <line x1="-24" y1="24" x2="-18" y2="18"/>
    </g>
  </g>
</svg>
