<?xml version="1.0" encoding="UTF-8"?>
<svg xmlns="http://www.w3.org/2000/svg" viewBox="0 0 1522 549" width="1522" height="549">
  <path fill="#FFFFFF" fill-rule="evenodd" d="M 1043.00,543.50 L 479.00,543.50 L 478.50,444.00 L 477.00,442.50 L 5.00,443.50 L 4.50,429.00 L 146.50,138.00 L 159.00,115.50 L 479.00,115.50 L 479.50,6.00 L 481.00,4.50 L 1045.00,4.50 L 1046.00,108.50 L 1516.50,109.00 L 1516.50,129.00 L 1365.00,436.50 L 1044.00,436.50 L 1043.00,543.50 Z M 950.50,461.00 L 950.50,347.00 L 952.00,345.50 L 1308.00,345.50 L 1316.50,331.00 L 1382.50,193.00 L 1376.00,191.50 L 954.00,192.50 L 950.50,190.00 L 951.50,100.00 L 950.50,95.00 L 948.00,93.50 L 573.00,93.50 L 571.50,95.00 L 571.00,206.50 L 214.00,206.50 L 207.50,217.00 L 140.50,357.00 L 141.00,359.50 L 570.00,359.50 L 571.50,361.00 L 572.00,461.50 L 950.50,461.00 Z"/>
</svg>
