<svg xmlns="http://www.w3.org/2000/svg" viewBox="0 0 256 256">
  <defs>
    <mask id="mask">
      <rect width="256" height="256" fill="#fff"/>
      <!-- clipped top-right corner -->
      <polygon points="200,0 256,0 256,56" fill="#000"/>
      <!-- corner pixels: 26x26, perfectly spaced on 200x200 inner grid -->
      <rect x="30" y="30" width="26" height="26" rx="2" fill="#000"/>
      <rect x="70" y="30" width="26" height="26" rx="2" fill="#000"/>
      <rect x="30" y="70" width="26" height="26" rx="2" fill="#000"/>
      
<path fill="#000" d="M128 78 L64 128 L64 190 L108 190 L108 152 L148 152 L148 190 L192 190 L192 128 Z"/>
<rect x="122" y="156" width="12" height="34" rx="2" fill="#000"/>
<rect x="76" y="136" width="48" height="6" fill="#000"/>
<rect x="132" y="136" width="48" height="6" fill="#000"/>

    </mask>
    <clipPath id="roundClip"><rect x="8" y="8" width="240" height="240" rx="22" ry="22"/></clipPath>
  </defs>
  <g clip-path="url(#roundClip)">
    <rect x="8" y="8" width="240" height="240" rx="22" fill="#ffffff" mask="url(#mask)"/>
    <rect x="56" y="208" width="144" height="10" fill="#ffffff"/>
  </g>
</svg>