<svg xmlns="http://www.w3.org/2000/svg" viewBox="0 0 256 256">
  <defs>
    <mask id="mask">
      <rect width="256" height="256" fill="#fff"/>
      <polygon points="200,0 256,0 256,56" fill="#000"/>
      <rect x="30" y="30" width="26" height="26" rx="2" fill="#000"/>
      <rect x="70" y="30" width="26" height="26" rx="2" fill="#000"/>
      <rect x="30" y="70" width="26" height="26" rx="2" fill="#000"/>
      
<rect x="124" y="92" width="8" height="68" fill="#000"/>
<polygon fill="#000" points="128,84 136,92 120,92"/>
<path d="M108 120 a20 20 0 0 1 0 32" fill="none" stroke="#000" stroke-width="8"/>
<path d="M148 120 a20 20 0 0 0 0 32" fill="none" stroke="#000" stroke-width="8"/>

    </mask>
    <clipPath id="roundClip"><rect x="8" y="8" width="240" height="240" rx="22" ry="22"/></clipPath>
  </defs>
  <g clip-path="url(#roundClip)">
    <rect x="8" y="8" width="240" height="240" rx="22" fill="#ffffff" mask="url(#mask)"/>
    <rect x="56" y="208" width="144" height="10" fill="#ffffff"/>
  </g>
</svg>