<svg xmlns="http://www.w3.org/2000/svg" viewBox="0 0 256 256">
  <defs>
    <mask id="mask">
      <rect width="256" height="256" fill="#fff"/>
      <!-- clipped top-right corner -->
      <polygon points="200,0 256,0 256,56" fill="#000"/>
      <!-- corner pixels -->
      <rect x="30" y="30" width="26" height="26" rx="2" fill="#000"/>
      <rect x="70" y="30" width="26" height="26" rx="2" fill="#000"/>
      <rect x="30" y="70" width="26" height="26" rx="2" fill="#000"/>
      
<g transform="translate(102,150)"><path fill="#000" d="M0.00,-40.00 L11.48,-27.72 L28.28,-28.28 L27.72,-11.48 L40.00,0.00 L27.72,11.48 L28.28,28.28 L11.48,27.72 L0.00,40.00 L-11.48,27.72 L-28.28,28.28 L-27.72,11.48 L-40.00,0.00 L-27.72,-11.48 L-28.28,-28.28 L-11.48,-27.72Z"/></g>
<g transform="translate(160,108) rotate(22)"><path fill="#000" d="M0.00,-26.00 L6.89,-16.63 L18.38,-18.38 L16.63,-6.89 L26.00,0.00 L16.63,6.89 L18.38,18.38 L6.89,16.63 L0.00,26.00 L-6.89,16.63 L-18.38,18.38 L-16.63,6.89 L-26.00,0.00 L-16.63,-6.89 L-18.38,-18.38 L-6.89,-16.63Z"/></g>

    </mask>
    <clipPath id="roundClip"><rect x="8" y="8" width="240" height="240" rx="22" ry="22"/></clipPath>
  </defs>
  <g clip-path="url(#roundClip)">
    <rect x="8" y="8" width="240" height="240" rx="22" fill="#ffffff" mask="url(#mask)"/>
    <rect x="56" y="208" width="144" height="10" fill="#ffffff"/>
  </g>
</svg>