<svg xmlns="http://www.w3.org/2000/svg" viewBox="0 0 256 256">
  <defs>
    <mask id="mask">
      <rect width="256" height="256" fill="#fff"/>
      <polygon points="200,0 256,0 256,56" fill="#000"/>
      <rect x="30" y="30" width="26" height="26" rx="2" fill="#000"/>
      <rect x="70" y="30" width="26" height="26" rx="2" fill="#000"/>
      <rect x="30" y="70" width="26" height="26" rx="2" fill="#000"/>
      
<path d="M88 112 C120 100, 168 100, 184 112" fill="none" stroke="#000" stroke-width="10" stroke-linecap="square"/>
<path d="M88 132 C122 122, 166 122, 180 132" fill="none" stroke="#000" stroke-width="10" stroke-linecap="square"/>
<path d="M88 152 C126 144, 162 144, 176 152" fill="none" stroke="#000" stroke-width="10" stroke-linecap="square"/>

    </mask>
    <clipPath id="roundClip"><rect x="8" y="8" width="240" height="240" rx="22" ry="22"/></clipPath>
  </defs>
  <g clip-path="url(#roundClip)">
    <rect x="8" y="8" width="240" height="240" rx="22" fill="#ffffff" mask="url(#mask)"/>
    <rect x="56" y="208" width="144" height="10" fill="#ffffff"/>
  </g>
</svg>