<svg xmlns="http://www.w3.org/2000/svg" viewBox="0 0 256 256">
  <defs>
    <mask id="mask">
      <rect width="256" height="256" fill="#fff"/>
      <polygon points="200,0 256,0 256,56" fill="#000"/>
      <rect x="30" y="30" width="26" height="26" rx="2" fill="#000"/>
      <rect x="70" y="30" width="26" height="26" rx="2" fill="#000"/>
      <rect x="30" y="70" width="26" height="26" rx="2" fill="#000"/>
      
<circle cx="108" cy="132" r="18" fill="#000"/>
<circle cx="136" cy="128" r="22" fill="#000"/>
<rect x="96" y="132" width="80" height="20" fill="#000"/>
<rect x="104" y="160" width="6" height="18" fill="#000"/>
<rect x="120" y="160" width="6" height="18" fill="#000"/>
<rect x="136" y="160" width="6" height="18" fill="#000"/>

    </mask>
    <clipPath id="roundClip"><rect x="8" y="8" width="240" height="240" rx="22" ry="22"/></clipPath>
  </defs>
  <g clip-path="url(#roundClip)">
    <rect x="8" y="8" width="240" height="240" rx="22" fill="#ffffff" mask="url(#mask)"/>
    <rect x="56" y="208" width="144" height="10" fill="#ffffff"/>
  </g>
</svg>