<svg xmlns="http://www.w3.org/2000/svg" viewBox="0 0 64 64" width="64" height="64">
  <line x1="32" y1="10" x2="32" y2="34" stroke="#E0E0E0" stroke-width="2.5" stroke-linecap="round"/>
  <line x1="32" y1="10" x2="44" y2="4" stroke="#E0E0E0" stroke-width="2.5" stroke-linecap="round"/>
  <path d="M22 20a14 14 0 0 0 0 20" fill="none" stroke="#E0E0E0" stroke-width="2.5" stroke-linecap="round"/>
  <path d="M42 20a14 14 0 0 1 0 20" fill="none" stroke="#E0E0E0" stroke-width="2.5" stroke-linecap="round"/>
  <path d="M16 14a22 22 0 0 0 0 32" fill="none" stroke="#E0E0E0" stroke-width="2.5" stroke-linecap="round"/>
  <path d="M48 14a22 22 0 0 1 0 32" fill="none" stroke="#E0E0E0" stroke-width="2.5" stroke-linecap="round"/>
  <circle cx="32" cy="30" r="4" fill="none" stroke="#E0E0E0" stroke-width="2.5"/>
  <rect x="10" y="40" width="44" height="18" rx="3" fill="none" stroke="#E0E0E0" stroke-width="2.5" stroke-linejoin="round"/>
  <line x1="18" y1="46" x2="30" y2="46" stroke="#E0E0E0" stroke-width="2.5" stroke-linecap="round"/>
  <line x1="18" y1="52" x2="26" y2="52" stroke="#E0E0E0" stroke-width="2.5" stroke-linecap="round"/>
  <circle cx="42" cy="49" r="4" fill="none" stroke="#E0E0E0" stroke-width="2.5"/>
</svg>
