<svg xmlns="http://www.w3.org/2000/svg" viewBox="0 0 64 64" width="64" height="64">
  <circle cx="26" cy="26" r="10" fill="none" stroke="#E0E0E0" stroke-width="2.5"/>
  <line x1="26" y1="8" x2="26" y2="12" stroke="#E0E0E0" stroke-width="2.5" stroke-linecap="round"/>
  <line x1="26" y1="40" x2="26" y2="44" stroke="#E0E0E0" stroke-width="2.5" stroke-linecap="round"/>
  <line x1="8" y1="26" x2="12" y2="26" stroke="#E0E0E0" stroke-width="2.5" stroke-linecap="round"/>
  <line x1="40" y1="26" x2="44" y2="26" stroke="#E0E0E0" stroke-width="2.5" stroke-linecap="round"/>
  <line x1="13.3" y1="13.3" x2="16.1" y2="16.1" stroke="#E0E0E0" stroke-width="2.5" stroke-linecap="round"/>
  <line x1="35.9" y1="35.9" x2="38.7" y2="38.7" stroke="#E0E0E0" stroke-width="2.5" stroke-linecap="round"/>
  <line x1="38.7" y1="13.3" x2="35.9" y2="16.1" stroke="#E0E0E0" stroke-width="2.5" stroke-linecap="round"/>
  <line x1="16.1" y1="35.9" x2="13.3" y2="38.7" stroke="#E0E0E0" stroke-width="2.5" stroke-linecap="round"/>
  <path d="M40 38a10 10 0 0 1 10 10h0a10 10 0 0 1-10 10H24a8 8 0 0 1 0-16h1a10 10 0 0 1 15-4z" fill="none" stroke="#E0E0E0" stroke-width="2.5" stroke-linejoin="round"/>
</svg>
